<svg width="18" height="24" viewBox="0 0 18 24" fill="none" xmlns="http://www.w3.org/2000/svg">
<path d="M12.7322 7.45668C12.647 6.5973 12.2813 5.92969 11.6349 5.45383C10.9886 4.97798 10.1115 4.74006 9.00355 4.74006C8.25071 4.74006 7.61506 4.84659 7.09659 5.05966C6.57813 5.26562 6.1804 5.55327 5.90341 5.92258C5.63352 6.2919 5.49858 6.71094 5.49858 7.17969C5.48438 7.57031 5.56605 7.91122 5.74361 8.20241C5.92827 8.49361 6.1804 8.74574 6.5 8.95881C6.8196 9.16477 7.18892 9.34588 7.60795 9.50213C8.02699 9.65128 8.47443 9.77912 8.95028 9.88565L10.9105 10.3544C11.8622 10.5675 12.7358 10.8516 13.5312 11.2067C14.3267 11.5618 15.0156 11.9986 15.598 12.517C16.1804 13.0355 16.6314 13.6463 16.951 14.3494C17.2777 15.0526 17.4446 15.8587 17.4517 16.7678C17.4446 18.103 17.1037 19.2607 16.429 20.2408C15.7614 21.2138 14.7955 21.9702 13.5312 22.5099C12.2741 23.0426 10.7578 23.3089 8.98224 23.3089C7.22088 23.3089 5.68679 23.0391 4.37997 22.4993C3.08026 21.9595 2.06463 21.1605 1.3331 20.1023C0.608665 19.0369 0.228693 17.7195 0.193182 16.1499H4.65696C4.70668 16.8814 4.91619 17.4922 5.28551 17.9822C5.66193 18.4652 6.16264 18.831 6.78764 19.0795C7.41974 19.321 8.13352 19.4418 8.92898 19.4418C9.71023 19.4418 10.3885 19.3281 10.9638 19.1009C11.5462 18.8736 11.9972 18.5575 12.3168 18.1527C12.6364 17.7479 12.7962 17.2827 12.7962 16.7571C12.7962 16.267 12.6506 15.8551 12.3594 15.5213C12.0753 15.1875 11.6563 14.9034 11.1023 14.669C10.5554 14.4347 9.88423 14.2216 9.08878 14.0298L6.71307 13.4332C4.87358 12.9858 3.42116 12.2862 2.35582 11.3345C1.29048 10.3828 0.761364 9.10085 0.768466 7.48864C0.761364 6.16761 1.11293 5.01349 1.82315 4.02628C2.54048 3.03906 3.52415 2.26847 4.77415 1.71449C6.02415 1.16051 7.4446 0.883522 9.03551 0.883522C10.6548 0.883522 12.0682 1.16051 13.2756 1.71449C14.4901 2.26847 15.4347 3.03906 16.1094 4.02628C16.7841 5.01349 17.1321 6.15696 17.1534 7.45668H12.7322Z" fill="#228BE6"/>
</svg>
