<svg width="156" height="172" viewBox="0 0 156 172" fill="none" xmlns="http://www.w3.org/2000/svg">
<path fill-rule="evenodd" clip-rule="evenodd" d="M30.9165 50.8849L45.4677 67.8189C53.6693 64.0834 68.3716 41.1313 77.7449 34.864C86.9669 40.2597 101.178 63.1288 109.757 67.6113C113.537 64.8305 153.373 22.6201 155.641 16.1454C152.504 10.9573 145.361 2.19975 140.069 0L110.211 33.2038C106.961 31.2946 108.926 33.2038 105.449 29.6759L93.5433 16.3529C89.3102 11.7459 82.2803 2.98835 77.7449 0.207524L30.9165 50.8849Z" fill="#228BE6"/>
<path fill-rule="evenodd" clip-rule="evenodd" d="M63.0048 86.413L93.2032 120.364L62.5513 154.771C65.4615 160.458 73.0584 168.842 77.745 171.747C82.2804 169.423 106.772 140.369 113.046 133.978C117.241 129.703 122.003 126.548 124.271 120.115L78.1985 69.23C73.5119 73.007 65.2725 81.5155 63.0048 86.413Z" fill="#228BE6"/>
<path fill-rule="evenodd" clip-rule="evenodd" d="M15.0803 171.705C20.7118 167.347 59.1874 125.137 61.6441 119.949C58.5071 116.67 50.1543 105.92 45.7701 104.343C39.2315 110.237 4.42205 147.135 0 155.228C2.30551 159.794 10.9606 169.589 15.0803 171.705Z" fill="#228BE6"/>
</svg>
